<?xml version="1.0" encoding="iso-8859-1"?>
<!-- Generator: Adobe Illustrator 16.0.0, SVG Export Plug-In . SVG Version: 6.00 Build 0)  -->
<!DOCTYPE svg PUBLIC "-//W3C//DTD SVG 1.1//EN" "http://www.w3.org/Graphics/SVG/1.1/DTD/svg11.dtd">
<svg version="1.1" id="Capa_1" xmlns="http://www.w3.org/2000/svg" xmlns:xlink="http://www.w3.org/1999/xlink" x="0px" y="0px"
	 width="499.504px" height="499.504px" viewBox="0 0 499.504 499.504" style="enable-background:new 0 0 499.504 499.504;"
	 xml:space="preserve">
<g>
	<g>
		<path d="M324.748,271.332l10.59-77.756h50.938l-8.543,53.066c6.266-1.086,12.703-1.658,19.273-1.658
			c8.771,0,17.311,1.01,25.508,2.918l8.744-54.327h23.441c12.551,0,22.762-10.211,22.762-22.762v-26.815
			c0-12.551-10.211-22.762-22.762-22.762h-9.783l42.918-42.917c8.889-8.889,8.889-23.301,0-32.19s-23.303-8.889-32.191,0
			L344.807,157.335c-4.441,4.444-10.27,6.667-16.094,6.667c-5.826,0-12.301-2.123-16.744-6.567
			c-3.182-3.182-5.041-7.066-5.439-11.262c-0.701-9.284-8.23-16.754-17.056-16.754h-84.22c-14.813,0-17.044,15.591-17.044,15.591
			c-0.746,4.513-2.244,8.942-5.728,12.425c-4.442,4.444-10.868,6.567-16.695,6.567c-5.823,0-11.65-2.222-16.093-6.667L38.857,46.13
			c-8.89-8.889-23.303-8.889-32.191,0c-8.888,8.889-8.889,23.301,0,32.19l42.918,42.917H39.8c-12.55,0-22.761,10.211-22.761,22.762
			v26.815c0,12.551,10.211,22.762,22.761,22.762h23.442L94.077,385.14c1.741,10.823,10.963,18.679,21.926,18.679h178.5
			c-6.414-14.139-9.99-29.829-9.99-46.339C284.512,322.937,300.166,291.983,324.748,271.332z M134.919,359.403l-26.692-165.827
			h50.938l22.582,165.827H134.919z M266.48,359.403H228.02l-11.933-165.827h62.328L266.48,359.403z"/>
		<path d="M402.006,265.051c-53.846,0-97.494,43.65-97.494,97.495s43.648,97.495,97.494,97.495s97.498-43.65,97.498-97.495
			S455.852,265.051,402.006,265.051z M456.004,377.546H348.01c-8.285,0-15-6.716-15-15s6.715-15,15-15h107.994
			c8.281,0,15,6.716,15,15S464.285,377.546,456.004,377.546z"/>
	</g>
</g>
<g>
</g>
<g>
</g>
<g>
</g>
<g>
</g>
<g>
</g>
<g>
</g>
<g>
</g>
<g>
</g>
<g>
</g>
<g>
</g>
<g>
</g>
<g>
</g>
<g>
</g>
<g>
</g>
<g>
</g>
</svg>
